<svg width="50" height="50" viewBox="0 0 50 50" fill="none" xmlns="http://www.w3.org/2000/svg">
<g clip-path="url(#clip0_1981_4736)">
<path d="M2.3095 26.814C1.0591 26.919 -0.0599021 26.0076 -0.0779021 24.7529C-0.143502 20.1901 1.1255 15.7115 3.606 11.8442C6.4934 7.34248 10.8599 3.92208 16.0245 2.11628C21.1892 0.310581 26.8616 0.220983 32.1573 1.86168C37.453 3.50228 42.0741 6.78078 45.3001 11.186C48.5261 15.5912 50.1755 20.8754 49.9912 26.2145C49.892 29.0867 49.2652 31.8879 48.1594 34.4945C47.2096 36.7333 49.601 42.8899 47.9755 44.7631C46.3274 46.6625 40.6966 44.2223 38.5497 45.5206C36.1141 46.9935 33.4074 48.0508 30.5427 48.6272C25.8914 49.5632 21.0494 49.1861 16.5824 47.564C15.4087 47.1377 14.9278 45.7774 15.469 44.652C16.0005 43.5469 17.3187 43.0867 18.4783 43.4855C22.0214 44.7041 25.8377 44.9692 29.5082 44.2306C33.8987 43.3471 37.8337 41.0771 40.6995 37.7744C43.5654 34.4718 45.2009 30.3223 45.3511 25.973C45.5012 21.6238 44.1576 17.3192 41.5297 13.7307C38.9018 10.1422 35.1373 7.47148 30.8234 6.13498C26.5095 4.79848 21.8887 4.87148 17.6815 6.34248C13.4744 7.81338 9.9174 10.5997 7.5653 14.2669C5.6428 17.2643 4.6136 20.7125 4.5642 24.2416C4.546 25.5443 3.6078 26.705 2.3095 26.814Z" fill="#3B2A82"/>
<path d="M9.51259 26.3384C8.38519 26.4418 7.36609 25.6264 7.37259 24.4942C7.39019 21.4583 8.25189 18.4853 9.88569 15.8945C11.8827 12.728 14.9208 10.3103 18.5262 9.01857C22.1317 7.72687 26.1018 7.63377 29.8175 8.75377C33.5331 9.87367 36.7854 12.1439 39.0672 15.2101C41.349 18.2763 42.5319 21.9663 42.4315 25.7045C42.3311 29.4428 40.9531 33.0192 38.5123 35.8759C36.0715 38.7327 32.7052 40.7093 28.9383 41.4974C25.8371 42.1462 22.608 41.9595 19.5952 40.9759C18.5241 40.6263 18.0809 39.3996 18.5614 38.3805C19.0332 37.3799 20.2196 36.9601 21.2816 37.2702C23.4537 37.9044 25.7571 38.0018 27.9745 37.5379C30.8413 36.9381 33.4032 35.4338 35.2608 33.2597C37.1183 31.0856 38.1671 28.3638 38.2435 25.5188C38.3199 22.6738 37.4196 19.8656 35.6831 17.532C33.9466 15.1985 31.4714 13.4708 28.6436 12.6184C25.8158 11.7661 22.7943 11.8369 20.0504 12.82C17.3065 13.803 14.9944 15.643 13.4746 18.0529C12.3384 19.8546 11.6929 21.8991 11.5797 24.0011C11.5166 25.1748 10.6832 26.2311 9.51259 26.3384Z" fill="#3B2A82"/>
<path d="M28.3145 25.4313C30.198 25.4313 31.725 23.9043 31.725 22.0208C31.725 20.1373 30.198 18.6104 28.3145 18.6104C26.431 18.6104 24.9041 20.1373 24.9041 22.0208C24.9041 23.9043 26.431 25.4313 28.3145 25.4313Z" fill="#3B2A82"/>
</g>
<defs>
<clipPath id="clip0_1981_4736">
<rect width="50" height="50" fill="white"/>
</clipPath>
</defs>
</svg>
