<svg width="213" height="25" viewBox="0 0 213 25" fill="none" xmlns="http://www.w3.org/2000/svg">
<path d="M14.896 5.072C14.768 5.296 14.6293 5.46133 14.48 5.568C14.3413 5.664 14.1653 5.712 13.952 5.712C13.728 5.712 13.4827 5.632 13.216 5.472C12.96 5.30133 12.6507 5.11467 12.288 4.912C11.9253 4.70933 11.4987 4.528 11.008 4.368C10.528 4.19733 9.95733 4.112 9.296 4.112C8.69867 4.112 8.176 4.18667 7.728 4.336C7.28 4.47467 6.90133 4.672 6.592 4.928C6.29333 5.184 6.06933 5.49333 5.92 5.856C5.77067 6.208 5.696 6.59733 5.696 7.024C5.696 7.568 5.84533 8.02133 6.144 8.384C6.45333 8.74667 6.85867 9.056 7.36 9.312C7.86133 9.568 8.432 9.79733 9.072 10C9.712 10.2027 10.368 10.4213 11.04 10.656C11.712 10.88 12.368 11.1467 13.008 11.456C13.648 11.7547 14.2187 12.1387 14.72 12.608C15.2213 13.0667 15.6213 13.632 15.92 14.304C16.2293 14.976 16.384 15.792 16.384 16.752C16.384 17.7973 16.2027 18.7787 15.84 19.696C15.488 20.6027 14.9653 21.3973 14.272 22.08C13.5893 22.752 12.752 23.2853 11.76 23.68C10.768 24.064 9.632 24.256 8.352 24.256C7.616 24.256 6.89067 24.1813 6.176 24.032C5.46133 23.8933 4.77333 23.6907 4.112 23.424C3.46133 23.1573 2.848 22.8373 2.272 22.464C1.696 22.0907 1.184 21.6747 0.736 21.216L2 19.152C2.10667 19.0027 2.24533 18.88 2.416 18.784C2.58667 18.6773 2.768 18.624 2.96 18.624C3.22667 18.624 3.51467 18.736 3.824 18.96C4.13333 19.1733 4.50133 19.4133 4.928 19.68C5.35467 19.9467 5.85067 20.192 6.416 20.416C6.992 20.6293 7.68 20.736 8.48 20.736C9.70667 20.736 10.656 20.448 11.328 19.872C12 19.2853 12.336 18.448 12.336 17.36C12.336 16.752 12.1813 16.256 11.872 15.872C11.5733 15.488 11.1733 15.168 10.672 14.912C10.1707 14.6453 9.6 14.4213 8.96 14.24C8.32 14.0587 7.66933 13.8613 7.008 13.648C6.34667 13.4347 5.696 13.1787 5.056 12.88C4.416 12.5813 3.84533 12.192 3.344 11.712C2.84267 11.232 2.43733 10.6347 2.128 9.92C1.82933 9.19467 1.68 8.304 1.68 7.248C1.68 6.40533 1.84533 5.584 2.176 4.784C2.51733 3.984 3.008 3.27467 3.648 2.656C4.288 2.03733 5.07733 1.54133 6.016 1.168C6.95467 0.794666 8.032 0.608 9.248 0.608C10.6133 0.608 11.872 0.821333 13.024 1.248C14.176 1.67467 15.1573 2.272 15.968 3.04L14.896 5.072ZM45.2265 0.863998V24H41.4345V9.056C41.4345 8.45867 41.4665 7.81333 41.5305 7.12L34.5385 20.256C34.2078 20.8853 33.7012 21.2 33.0185 21.2H32.4105C31.7278 21.2 31.2212 20.8853 30.8905 20.256L23.8185 7.072C23.8505 7.424 23.8772 7.77067 23.8985 8.112C23.9198 8.45333 23.9305 8.768 23.9305 9.056V24H20.1385V0.863998H23.3865C23.5785 0.863998 23.7438 0.869332 23.8825 0.879999C24.0212 0.890665 24.1438 0.917332 24.2505 0.959999C24.3678 1.00267 24.4692 1.072 24.5545 1.168C24.6505 1.264 24.7412 1.392 24.8265 1.552L31.7545 14.4C31.9358 14.7413 32.1012 15.0933 32.2505 15.456C32.4105 15.8187 32.5652 16.192 32.7145 16.576C32.8638 16.1813 33.0185 15.8027 33.1785 15.44C33.3385 15.0667 33.5092 14.7093 33.6905 14.368L40.5225 1.552C40.6078 1.392 40.6985 1.264 40.7945 1.168C40.8905 1.072 40.9918 1.00267 41.0985 0.959999C41.2158 0.917332 41.3438 0.890665 41.4825 0.879999C41.6212 0.869332 41.7865 0.863998 41.9785 0.863998H45.2265ZM62.6125 15.264L59.7965 7.568C59.6578 7.22667 59.5138 6.82133 59.3645 6.352C59.2152 5.88267 59.0658 5.376 58.9165 4.832C58.7778 5.376 58.6338 5.888 58.4845 6.368C58.3352 6.83733 58.1912 7.248 58.0525 7.6L55.2525 15.264H62.6125ZM70.2125 24H66.8845C66.5112 24 66.2072 23.9093 65.9725 23.728C65.7378 23.536 65.5618 23.3013 65.4445 23.024L63.7165 18.304H54.1325L52.4045 23.024C52.3192 23.2693 52.1538 23.4933 51.9085 23.696C51.6632 23.8987 51.3592 24 50.9965 24H47.6365L56.7405 0.863998H61.1245L70.2125 24ZM79.5993 11.872C80.4099 11.872 81.1139 11.7707 81.7113 11.568C82.3193 11.3653 82.8153 11.088 83.1993 10.736C83.5939 10.3733 83.8873 9.94667 84.0793 9.456C84.2713 8.96533 84.3673 8.42667 84.3673 7.84C84.3673 6.66667 83.9779 5.76533 83.1993 5.136C82.4313 4.50667 81.2526 4.192 79.6633 4.192H76.9113V11.872H79.5993ZM90.6713 24H86.7833C86.0473 24 85.5139 23.712 85.1833 23.136L80.3193 15.728C80.1379 15.4507 79.9353 15.2533 79.7113 15.136C79.4979 15.0187 79.1779 14.96 78.7513 14.96H76.9113V24H72.6073V0.863998H79.6633C81.2313 0.863998 82.5753 1.02933 83.6953 1.36C84.8259 1.68 85.7486 2.13333 86.4633 2.72C87.1886 3.30667 87.7219 4.01067 88.0633 4.832C88.4046 5.64267 88.5753 6.53867 88.5753 7.52C88.5753 8.29867 88.4579 9.03467 88.2233 9.728C87.9993 10.4213 87.6686 11.0507 87.2313 11.616C86.8046 12.1813 86.2713 12.6773 85.6313 13.104C85.0019 13.5307 84.2819 13.8667 83.4713 14.112C83.7486 14.272 84.0046 14.464 84.2393 14.688C84.4739 14.9013 84.6873 15.1573 84.8793 15.456L90.6713 24ZM108.736 4.4H101.76V24H97.456V4.4H90.48V0.863998H108.736V4.4ZM126.87 18.544C127.105 18.544 127.313 18.6347 127.494 18.816L129.19 20.656C128.252 21.8187 127.094 22.7093 125.718 23.328C124.353 23.9467 122.71 24.256 120.79 24.256C119.073 24.256 117.526 23.9627 116.15 23.376C114.785 22.7893 113.617 21.9733 112.646 20.928C111.676 19.8827 110.929 18.6347 110.406 17.184C109.894 15.7333 109.638 14.1493 109.638 12.432C109.638 10.6933 109.916 9.104 110.47 7.664C111.025 6.21333 111.804 4.96533 112.806 3.92C113.82 2.87467 115.025 2.064 116.422 1.488C117.82 0.901333 119.366 0.608 121.062 0.608C122.748 0.608 124.241 0.885333 125.542 1.44C126.854 1.99467 127.969 2.72 128.886 3.616L127.446 5.616C127.361 5.744 127.249 5.856 127.11 5.952C126.982 6.048 126.801 6.096 126.566 6.096C126.406 6.096 126.241 6.05333 126.07 5.968C125.9 5.872 125.713 5.76 125.51 5.632C125.308 5.49333 125.073 5.344 124.806 5.184C124.54 5.024 124.23 4.88 123.878 4.752C123.526 4.61333 123.116 4.50133 122.646 4.416C122.188 4.32 121.654 4.272 121.046 4.272C120.012 4.272 119.062 4.45867 118.198 4.832C117.345 5.19467 116.609 5.728 115.99 6.432C115.372 7.12533 114.892 7.97867 114.55 8.992C114.209 9.99467 114.038 11.1413 114.038 12.432C114.038 13.7333 114.22 14.8907 114.582 15.904C114.956 16.9173 115.457 17.7707 116.086 18.464C116.716 19.1573 117.457 19.6907 118.31 20.064C119.164 20.4267 120.081 20.608 121.062 20.608C121.649 20.608 122.177 20.576 122.646 20.512C123.126 20.448 123.564 20.3467 123.958 20.208C124.364 20.0693 124.742 19.8933 125.094 19.68C125.457 19.456 125.814 19.184 126.166 18.864C126.273 18.768 126.385 18.6933 126.502 18.64C126.62 18.576 126.742 18.544 126.87 18.544ZM153.703 12.432C153.703 14.128 153.42 15.7013 152.855 17.152C152.3 18.592 151.511 19.84 150.487 20.896C149.463 21.952 148.231 22.7787 146.791 23.376C145.351 23.9627 143.751 24.256 141.991 24.256C140.241 24.256 138.647 23.9627 137.207 23.376C135.767 22.7787 134.529 21.952 133.495 20.896C132.471 19.84 131.676 18.592 131.111 17.152C130.545 15.7013 130.263 14.128 130.263 12.432C130.263 10.736 130.545 9.168 131.111 7.728C131.676 6.27733 132.471 5.024 133.495 3.968C134.529 2.912 135.767 2.09067 137.207 1.504C138.647 0.906666 140.241 0.608 141.991 0.608C143.164 0.608 144.268 0.746666 145.303 1.024C146.337 1.29067 147.287 1.67467 148.151 2.176C149.015 2.66667 149.788 3.26933 150.471 3.984C151.164 4.688 151.751 5.47733 152.231 6.352C152.711 7.22667 153.073 8.176 153.319 9.2C153.575 10.224 153.703 11.3013 153.703 12.432ZM149.303 12.432C149.303 11.1627 149.132 10.0267 148.791 9.024C148.449 8.01067 147.964 7.152 147.335 6.448C146.705 5.744 145.937 5.20533 145.031 4.832C144.135 4.45867 143.121 4.272 141.991 4.272C140.86 4.272 139.841 4.45867 138.935 4.832C138.039 5.20533 137.271 5.744 136.631 6.448C136.001 7.152 135.516 8.01067 135.175 9.024C134.833 10.0267 134.663 11.1627 134.663 12.432C134.663 13.7013 134.833 14.8427 135.175 15.856C135.516 16.8587 136.001 17.712 136.631 18.416C137.271 19.1093 138.039 19.6427 138.935 20.016C139.841 20.3893 140.86 20.576 141.991 20.576C143.121 20.576 144.135 20.3893 145.031 20.016C145.937 19.6427 146.705 19.1093 147.335 18.416C147.964 17.712 148.449 16.8587 148.791 15.856C149.132 14.8427 149.303 13.7013 149.303 12.432ZM182.57 0.863998V24H178.778V9.056C178.778 8.45867 178.81 7.81333 178.874 7.12L171.882 20.256C171.552 20.8853 171.045 21.2 170.362 21.2H169.754C169.072 21.2 168.565 20.8853 168.234 20.256L161.162 7.072C161.194 7.424 161.221 7.77067 161.242 8.112C161.264 8.45333 161.274 8.768 161.274 9.056V24H157.482V0.863998H160.73C160.922 0.863998 161.088 0.869332 161.226 0.879999C161.365 0.890665 161.488 0.917332 161.594 0.959999C161.712 1.00267 161.813 1.072 161.898 1.168C161.994 1.264 162.085 1.392 162.17 1.552L169.098 14.4C169.28 14.7413 169.445 15.0933 169.594 15.456C169.754 15.8187 169.909 16.192 170.058 16.576C170.208 16.1813 170.362 15.8027 170.522 15.44C170.682 15.0667 170.853 14.7093 171.034 14.368L177.866 1.552C177.952 1.392 178.042 1.264 178.138 1.168C178.234 1.072 178.336 1.00267 178.442 0.959999C178.56 0.917332 178.688 0.890665 178.826 0.879999C178.965 0.869332 179.13 0.863998 179.322 0.863998H182.57ZM212.82 0.863998V24H209.028V9.056C209.028 8.45867 209.06 7.81333 209.124 7.12L202.132 20.256C201.802 20.8853 201.295 21.2 200.612 21.2H200.004C199.322 21.2 198.815 20.8853 198.484 20.256L191.412 7.072C191.444 7.424 191.471 7.77067 191.492 8.112C191.514 8.45333 191.524 8.768 191.524 9.056V24H187.732V0.863998H190.98C191.172 0.863998 191.338 0.869332 191.476 0.879999C191.615 0.890665 191.738 0.917332 191.844 0.959999C191.962 1.00267 192.063 1.072 192.148 1.168C192.244 1.264 192.335 1.392 192.42 1.552L199.348 14.4C199.53 14.7413 199.695 15.0933 199.844 15.456C200.004 15.8187 200.159 16.192 200.308 16.576C200.458 16.1813 200.612 15.8027 200.772 15.44C200.932 15.0667 201.103 14.7093 201.284 14.368L208.116 1.552C208.202 1.392 208.292 1.264 208.388 1.168C208.484 1.072 208.586 1.00267 208.692 0.959999C208.81 0.917332 208.938 0.890665 209.076 0.879999C209.215 0.869332 209.38 0.863998 209.572 0.863998H212.82Z" fill="#3B2A82"/>
</svg>
